PathFileType	4	(X/Y/Z)	/Users/itak/Documents/Research/Walk-IL/dataset/trc/00531_00183.trc
DataRate	CameraRate	NumFrames	NumMarkers	Units	OrigDataRate	OrigDataStartFrame	OrigNumFrames
100.000000	100.000000	4	53	mm	100.000000	295	472
Frame#	Time	RPSI			LPSI			L3			STRN			T10			C7			CLAV			RBAK			LBAK			LSHO			LUPA			LAEL			LAOL			LWTS			LWPS			LFRA			LIFD			LHPS			LHTS			RSHO			RUPA			RAEL			RAOL			RWTS			RWPS			RFRA			RIFD			RHTS			RHPS			RBHD			LFHD			RFHD			LBHD			LHIP			RHIP			RASI			LASI			LKNE			LTHI			LANK			LTIP			LTOE			LMT1			LMT5			LHEE			RKNE			RTHI			RANK			RTIP			RTOE			RMT1			RMT5			RHEE			
		X1	Y1	Z1	X2	Y2	Z2	X3	Y3	Z3	X4	Y4	Z4	X5	Y5	Z5	X6	Y6	Z6	X7	Y7	Z7	X8	Y8	Z8	X9	Y9	Z9	X10	Y10	Z10	X11	Y11	Z11	X12	Y12	Z12	X13	Y13	Z13	X14	Y14	Z14	X15	Y15	Z15	X16	Y16	Z16	X17	Y17	Z17	X18	Y18	Z18	X19	Y19	Z19	X20	Y20	Z20	X21	Y21	Z21	X22	Y22	Z22	X23	Y23	Z23	X24	Y24	Z24	X25	Y25	Z25	X26	Y26	Z26	X27	Y27	Z27	X28	Y28	Z28	X29	Y29	Z29	X30	Y30	Z30	X31	Y31	Z31	X32	Y32	Z32	X33	Y33	Z33	X34	Y34	Z34	X35	Y35	Z35	X36	Y36	Z36	X37	Y37	Z37	X38	Y38	Z38	X39	Y39	Z39	X40	Y40	Z40	X41	Y41	Z41	X42	Y42	Z42	X43	Y43	Z43	X44	Y44	Z44	X45	Y45	Z45	X46	Y46	Z46	X47	Y47	Z47	X48	Y48	Z48	X49	Y49	Z49	X50	Y50	Z50	X51	Y51	Z51	X52	Y52	Z52	X53	Y53	Z53	

296	2.95	151.9300079345703	943.454833984375	253.6273193359375	209.3153228759766	929.393310546875	143.9161529541016	182.8453216552734	1013.052612304688	190.3244781494141	378.7809143066406	1175.176025390625	290.4598999023438	170.2648468017578	1118.017333984375	188.9517364501953	204.8968048095703	1348.590576171875	213.9045867919922	345.19189453125	1270.500244140625	277.7279357910156	124.0130233764648	1225.514404296875	264.5198059082031	220.3016204833984	1296.935180664062	122.3499450683594	337.2085266113281	1346.5078125	100.1200408935547	354.3318176269531	1222.476806640625	35.7475471496582	382.2707214355469	1014.805603027344	6.622262001037598	289.0690307617188	1000.711547851562	37.91160202026367	464.6527099609375	840.0154418945312	71.65727996826172	416.7437744140625	799.2225341796875	1.332551598548889	404.4015502929688	936.4766235351562	9.944972038269043	483.5032653808594	683.850830078125	79.4697265625	443.5799865722656	748.456298828125	15.08348369598389	490.5717163085938	765.2552490234375	56.65445327758789	188.4503784179688	1337.397216796875	370.7129516601562	142.0293884277344	1270.188232421875	406.13330078125	87.03778839111328	1007.42041015625	418.2000732421875	72.54974365234375	999.03955078125	353.95166015625	155.0514068603516	793.2618408203125	446.2509155273438	67.73135375976562	782.320556640625	420.5580749511719	78.50791931152344	953.4600219726562	421.7632141113281	137.7138671875	634.4143676757812	431.8462524414062	137.5586547851562	698.5025634765625	462.8533020019531	76.2366943359375	705.9185180664062	428.4231262207031	201.7581634521484	1497.342895507812	311.9705810546875	377.9794616699219	1569.119995117188	250.3063812255859	315.3689880371094	1558.442260742188	360.4979553222656	269.2547302246094	1507.824462890625	165.6918334960938	364.8798217773438	850.2490844726562	84.60043334960938	194.1025238037109	860.0018920898438	421.71728515625	309.7803344726562	906.9231567382812	402.5058288574219	414.6453552246094	896.460693359375	184.7449951171875	415.1015930175781	432.5702209472656	169.0078887939453	413.8207702636719	590.7871704101562	142.1080169677734	88.07093811035156	218.80859375	6.694021701812744	320.7626342773438	340.0279541015625	115.6230392456055	127.0670394897461	41.49421310424805	93.16348266601562	86.66358184814453	107.8676147460938	110.8606872558594	121.9568557739258	116.2322616577148	11.80197525024414	44.82665252685547	257.0095520019531	55.36313629150391	305.154541015625	478.8236694335938	410.7272338867188	238.1501007080078	732.847412109375	441.4630126953125	289.9988403320312	45.44694519042969	356.4765625	336.1611328125	333.2503051757812	402.701171875	488.7913208007812	37.51092529296875	419.8796691894531	449.7494201660156	43.9458122253418	353.9094848632812	381.8953247070312	40.36980438232422	422.9118347167969	271.9312744140625	35.70937728881836	288.29345703125	
297	2.96	159.8330993652344	944.8955078125	258.9153137207031	216.8912963867188	930.0753173828125	148.9864501953125	190.4384002685547	1014.272888183594	195.6951599121094	387.4579162597656	1176.375854492188	294.5293579101562	178.2718963623047	1119.428588867188	194.7908477783203	213.3300170898438	1349.913818359375	219.1936492919922	353.8745727539062	1271.686767578125	282.0309143066406	132.9079742431641	1226.838745117188	270.9549255371094	228.0293884277344	1298.090942382812	127.6797790527344	344.8935546875	1347.499877929688	104.4180221557617	361.4782409667969	1223.325073242188	40.20951461791992	389.1228332519531	1015.362487792969	11.85436058044434	295.8047180175781	1001.770874023438	43.1866569519043	469.6828308105469	839.3554077148438	76.43590545654297	421.2107543945312	799.1793212890625	6.112551212310791	410.5597839355469	936.399169921875	14.89684200286865	486.7838134765625	683.0074462890625	84.04098510742188	447.5166015625	748.107177734375	19.83907890319824	494.7272033691406	764.3296508789062	61.32519149780273	198.0556945800781	1338.876220703125	376.1366271972656	152.0964050292969	1271.697021484375	412.4450378417969	98.47731018066406	1008.580261230469	427.0429992675781	82.64125061035156	999.8956909179688	363.0993957519531	167.6997528076172	794.7391967773438	454.455078125	79.84052276611328	783.7041015625	430.5587768554688	90.13267517089844	954.6836547851562	431.063232421875	149.7594146728516	635.8089599609375	441.5269165039062	150.3788909912109	700.0897827148438	472.0903015136719	88.32286071777344	707.3660278320312	438.9101257324219	210.1444854736328	1498.284545898438	316.7237548828125	386.1962280273438	1570.712768554688	255.1854858398438	323.5499877929688	1559.790161132812	365.3138122558594	277.7562255859375	1509.04150390625	170.4483489990234	372.7225036621094	851.2377319335938	89.775390625	202.1253356933594	861.20703125	426.6284790039062	317.9996032714844	908.1634521484375	407.383056640625	422.4913635253906	898.1808471679688	189.4065399169922	433.7329406738281	436.0068359375	179.0523223876953	426.930419921875	593.3837890625	149.3884124755859	107.5355377197266	220.9979248046875	18.26836013793945	340.1746520996094	343.8222961425781	126.617073059082	150.0138549804688	44.41454696655273	104.9279403686523	108.4996871948242	110.3406677246094	122.658821105957	143.4361114501953	119.3663635253906	23.59825706481934	63.84330368041992	258.582763671875	66.93555450439453	308.1768798828125	478.6071472167969	413.6734008789062	244.6882171630859	733.4965209960938	445.6404418945312	289.9645080566406	45.44241333007812	356.5198974609375	337.6011352539062	332.850830078125	404.4403686523438	488.6973266601562	37.43544006347656	419.9749450683594	449.6789855957031	44.01446533203125	354.0870056152344	381.8586730957031	40.16557693481445	423.1031188964844	271.9192810058594	35.81731033325195	288.2961730957031	
298	2.97	167.6770172119141	946.2684326171875	263.9864501953125	224.5584106445312	930.9530639648438	153.9215393066406	198.0380706787109	1015.542724609375	200.864990234375	395.9432678222656	1177.687377929688	298.5814819335938	186.1965789794922	1120.866333007812	200.334716796875	221.6383209228516	1351.264770507812	224.2819671630859	362.3660888671875	1272.97412109375	286.2545776367188	141.6014862060547	1228.218872070312	277.0610656738281	235.7370147705078	1299.296264648438	132.8139343261719	352.51953125	1348.542236328125	108.6388854980469	368.6271362304688	1224.257446289062	44.5771369934082	395.7887573242188	1016.038635253906	17.00477981567383	302.369140625	1002.967895507812	48.40379333496094	474.6108703613281	838.8128051757812	81.09249877929688	425.571533203125	799.2862548828125	10.7724723815918	416.5429382324219	936.49755859375	19.75480079650879	489.9412231445312	682.297607421875	88.46674346923828	451.3369750976562	747.8871459960938	24.45510864257812	498.7774658203125	763.5269775390625	65.84605407714844	207.4249267578125	1340.479736328125	381.2996215820312	161.9659271240234	1273.3671875	418.5653991699219	110.1614227294922	1009.840148925781	436.0037231445312	92.86555480957031	1000.825134277344	372.4155883789062	180.6457061767578	796.2630615234375	462.6231689453125	92.22779846191406	785.2294311523438	440.7593078613281	102.0996627807617	956.01513671875	440.4627380371094	161.8607177734375	637.2701416015625	451.2074890136719	163.4334259033203	701.7366943359375	481.3240051269531	100.636100769043	708.9736328125	449.5666809082031	218.5096893310547	1499.325439453125	321.3648681640625	394.4839172363281	1572.214233398438	260.0057678222656	331.7945556640625	1561.042114257812	370.0615539550781	286.2334289550781	1510.372924804688	175.1086883544922	380.841552734375	852.5416870117188	94.94374084472656	209.9919891357422	862.287353515625	431.3831787109375	326.010986328125	909.4415283203125	412.32275390625	430.3169860839844	900.0706787109375	194.2118835449219	452.0634460449219	439.9065551757812	189.1031799316406	440.13525390625	596.359375	156.7114410400391	127.4205551147461	221.6544036865234	30.15939712524414	359.4731750488281	347.5139770507812	137.6985931396484	174.7617950439453	46.87358093261719	117.5617065429688	131.6082611083984	111.7596740722656	135.1239471435547	166.0833740234375	121.3638305664062	36.01924896240234	83.0975341796875	258.4976806640625	78.72531127929688	311.2716369628906	478.4175109863281	416.5428466796875	251.3374481201172	734.1232299804688	449.7830810546875	289.918212890625	45.46188354492188	356.5719604492188	339.1017456054688	332.5101623535156	406.0274353027344	488.5974731445312	37.41653442382812	420.0531311035156	449.5963745117188	44.09081649780273	354.2452392578125	381.8167724609375	40.00596237182617	423.2743225097656	271.9077453613281	35.94514465332031	288.3035583496094	
299	2.98	175.5089569091797	947.5367431640625	268.8601379394531	232.3193817138672	931.9813232421875	158.7400817871094	205.6809844970703	1016.826477050781	205.855224609375	404.2412109375	1179.074462890625	302.6735534667969	194.0461883544922	1122.289306640625	205.6227111816406	229.8238830566406	1352.608642578125	229.1837463378906	370.6724853515625	1274.330078125	290.4428405761719	150.0889587402344	1229.620361328125	282.8359985351562	243.4420928955078	1300.51611328125	137.7662811279297	360.1142272949219	1349.598510742188	112.8144378662109	375.7896423339844	1225.232666015625	48.87993621826172	402.2479553222656	1016.795654296875	22.03884315490723	308.7629089355469	1004.263427734375	53.55877685546875	479.4629821777344	838.3775024414062	85.63349914550781	429.8627624511719	799.5242309570312	15.32447528839111	422.3484191894531	936.7538452148438	24.5081729888916	493.0071716308594	681.706298828125	92.78294372558594	455.0714416503906	747.7745971679688	28.94626426696777	502.7537536621094	762.8325805664062	70.23851013183594	216.5363464355469	1342.1728515625	386.2188415527344	171.6084899902344	1275.162719726562	424.4842834472656	122.0567092895508	1011.193664550781	445.0338439941406	103.2057113647461	1001.809936523438	381.8666076660156	193.8816986083984	797.8402099609375	470.7426147460938	104.9055557250977	786.8590087890625	451.1530456542969	114.3828887939453	957.4349365234375	449.9102478027344	174.1172790527344	638.7945556640625	460.8731689453125	176.7685699462891	703.4406127929688	490.5344848632812	113.2252578735352	710.7047729492188	460.3860168457031	226.8558654785156	1500.459838867188	325.891357421875	402.8414306640625	1573.593872070312	264.747314453125	340.098876953125	1562.195678710938	374.7271728515625	294.6832580566406	1511.785400390625	179.6690673828125	389.2196655273438	854.1106567382812	100.103889465332	217.72607421875	863.2359619140625	436.0333557128906	333.8364562988281	910.7100219726562	417.3446960449219	438.1228332519531	902.06787109375	199.1761169433594	470.0468139648438	444.1814575195312	199.0962524414062	453.4170837402344	599.6615600585938	164.0360260009766	147.7205352783203	220.8098754882812	42.30656814575195	378.6270751953125	350.995361328125	148.7978668212891	201.0968017578125	48.77457046508789	130.9262542724609	155.872314453125	112.14990234375	148.1450805664062	189.7757415771484	122.24658203125	48.9632453918457	102.6087188720703	256.7832336425781	90.67389678955078	314.4306030273438	478.2403564453125	419.2909851074219	258.1287231445312	734.7052612304688	453.9214782714844	289.8780822753906	45.49932098388672	356.6272277832031	340.6815185546875	332.2114868164062	407.4640502929688	488.5073852539062	37.41636276245117	420.1189880371094	449.5172729492188	44.15297317504883	354.3789367675781	381.7810668945312	39.88089370727539	423.4243774414062	271.9017639160156	36.09634780883789	288.3144836425781	
